{"title":"Arrow S03E02 Sara 720p HDTV X265","uid":11229419,"size":373443993,"categoryP":"video","categoryS":"hd___tv_shows","magnet":"?xt=urn:btih:e316c5749e0f69567e5618895cdab9e8a1398e94&amp;dn=Arrow+S03E02+Sara+720p+HDTV+X265&amp;tr=udp%3A%2F%2Ftracker.openbittorrent.com%3A80&amp;tr=udp%3A%2F%2Fopen.demonii.com%3A1337&amp;tr=udp%3A%2F%2Ftracker.coppersurfer.tk%3A6969&amp;tr=udp%3A%2F%2Fexodus.desync.com%3A6969","seeders":3,"leechers":0,"uploader":"atm50","files":-1,"time":1413502938,"description":"Team Arrow is in pursuit of a new villain who poses a threat to Starling City. Meanwhile, Oliver is worried about not having heard from Thea.\n\nSource: Arrow S03E02 720p HDTV X264-DIMENSION [eztv]\n\nFormat                         : MPEG-4\nFile size                      : 356 MiB\nDuration                       : 42mn 4s\nOverall bit rate               : 1 183 Kbps\n\nVideo\n\nFormat                         : HEVC [X265]\nBit rate                       : 925 Kbps\nMaximum bit rate               : 6 785 Kbps\nWidth                          : 1 280 pixels\nHeight                         : 720 pixels\nDisplay aspect ratio           : 16:9\nFrame rate                     : 23.976 fps\nStream size                    : 278 MiB (78%)\n\nAudio\n\nFormat                         : AC-3\nBit rate                       : 256 Kbps\nChannel(s)                     : 6 channels (5.1)\nSampling rate                  : 48.0 KHz\nBit depth                      : 16 bits\nCompression mode               : Lossy\nStream size                    : 77.0 MiB (22%)\n\nSubtitles: English (External)","torrent":{"xt":"urn:btih:e316c5749e0f69567e5618895cdab9e8a1398e94","amp;dn":"Arrow+S03E02+Sara+720p+HDTV+X265","amp;tr":["udp%3A%2F%2Ftracker.openbittorrent.com%3A80","udp%3A%2F%2Fopen.demonii.com%3A1337","udp%3A%2F%2Ftracker.coppersurfer.tk%3A6969","udp%3A%2F%2Fexodus.desync.com%3A6969"],"infoHash":"e316c5749e0f69567e5618895cdab9e8a1398e94","infoHashBuffer":{"type":"Buffer","data":[227,22,197,116,158,15,105,86,126,86,24,137,92,218,185,232,161,57,142,148]},"announce":[],"urlList":[]}}